<svg width="17" height="21" viewBox="0 0 17 21" fill="none" xmlns="http://www.w3.org/2000/svg">
<path d="M14.7501 8.41683H5.37508V5.29183C5.37508 3.56891 6.77716 2.16683 8.50008 2.16683C10.223 2.16683 11.6251 3.56891 11.6251 5.29183H13.7084C13.7084 2.41995 11.372 0.0834961 8.50008 0.0834961C5.62821 0.0834961 3.29175 2.41995 3.29175 5.29183V8.41683H2.25008C1.69755 8.41683 1.16764 8.63632 0.776942 9.02702C0.386241 9.41773 0.166748 9.94763 0.166748 10.5002V18.8335C0.166748 19.386 0.386241 19.9159 0.776942 20.3066C1.16764 20.6973 1.69755 20.9168 2.25008 20.9168H14.7501C15.3026 20.9168 15.8325 20.6973 16.2232 20.3066C16.6139 19.9159 16.8334 19.386 16.8334 18.8335V10.5002C16.8334 9.94763 16.6139 9.41773 16.2232 9.02702C15.8325 8.63632 15.3026 8.41683 14.7501 8.41683ZM6.48029 14.145C6.60833 13.6548 6.91043 13.228 7.33016 12.9443C7.74989 12.6606 8.25855 12.5393 8.76113 12.6033C9.2637 12.6672 9.72582 12.9119 10.0612 13.2916C10.3965 13.6714 10.5822 14.1602 10.5834 14.6668C10.5828 15.0311 10.4862 15.3889 10.3033 15.704C10.1205 16.0191 9.85778 16.2804 9.54175 16.4616V18.8335H7.45841V16.4616C7.06427 16.2358 6.75513 15.8868 6.57843 15.4683C6.40174 15.0498 6.36726 14.5849 6.48029 14.145Z" fill="white"/>
</svg>
